<?xml version="1.0" standalone="no"?>
<!DOCTYPE svg PUBLIC "-//W3C//DTD SVG 20010904//EN"
 "http://www.w3.org/TR/2001/REC-SVG-20010904/DTD/svg10.dtd">
<svg version="1.0" xmlns="http://www.w3.org/2000/svg"
 width="70.000000pt" height="41.000000pt" viewBox="0 0 70.000000 61.000000"
 preserveAspectRatio="xMidYMid meet">

<g transform="translate(0.000000,61.000000) scale(0.100000,-0.100000)"
fill="#000000" stroke="none">
<path d="M224 550 c-22 -9 -74 -65 -74 -81 0 -17 -29 -9 -40 11 -6 11 -20 20
-30 20 -26 0 -26 -20 0 -27 24 -6 25 -10 4 -31 -31 -30 -8 -199 30 -224 21
-15 30 -8 9 7 -36 25 -58 172 -30 208 10 14 21 15 85 6 40 -6 79 -8 85 -6 7 2
-14 8 -45 12 -33 4 -58 12 -58 19 1 28 49 69 91 77 58 11 164 11 214 -1 35 -8
95 -59 95 -81 0 -3 -28 -10 -62 -14 -35 -4 -58 -9 -51 -12 6 -2 44 0 84 6 98
13 103 9 97 -92 -4 -59 -10 -85 -27 -107 -12 -17 -17 -30 -12 -30 6 0 18 12
28 26 21 32 32 189 14 207 -17 17 -13 27 9 27 11 0 20 7 20 15 0 22 -38 18
-50 -5 -16 -29 -36 -24 -60 15 -34 55 -63 65 -192 64 -62 0 -122 -4 -134 -9z"/>
<path d="M100 382 c0 -17 11 -27 46 -43 26 -11 49 -17 52 -14 7 6 -48 65 -61
65 -5 0 -4 -7 3 -15 8 -9 9 -15 2 -15 -6 0 -18 10 -26 22 l-16 22 0 -22z"/>
<path d="M538 360 c-17 -17 -28 -33 -25 -36 3 -3 26 3 51 15 31 13 46 26 46
38 -1 17 -1 17 -14 1 -16 -22 -30 -23 -22 -3 8 23 -2 18 -36 -15z"/>
<path d="M224 335 c-9 -22 15 -84 36 -95 10 -6 31 -9 47 -9 27 2 27 2 3 6 -33
6 -50 23 -24 24 15 1 14 2 -5 8 -37 10 -40 33 -4 26 21 -5 24 -4 13 4 -8 6
-23 11 -32 11 -10 0 -18 5 -18 11 0 8 14 10 43 6 l42 -6 -35 14 c-46 18 -59
18 -66 0z"/>
<path d="M425 335 l-40 -14 43 5 c27 4 42 2 42 -5 0 -6 -8 -11 -17 -11 -10 0
-25 -5 -33 -11 -12 -8 -9 -9 13 -5 20 5 27 3 27 -9 0 -9 -10 -15 -27 -16 l-28
-1 25 -8 c27 -8 17 -15 -30 -23 -18 -3 -15 -5 11 -6 45 -1 69 23 76 78 6 46 2
48 -62 26z"/>
<path d="M123 324 c4 -4 17 -12 29 -18 13 -6 34 -33 47 -59 28 -53 54 -66 104
-48 l32 11 -36 -5 c-52 -8 -67 1 -94 54 -13 27 -35 52 -50 59 -29 13 -42 15
-32 6z"/>
<path d="M570 323 c-24 -9 -60 -45 -60 -60 0 -8 -11 -25 -25 -39 -20 -20 -31
-24 -67 -20 l-43 5 44 -11 c54 -14 69 -6 98 55 13 26 26 47 31 47 4 0 17 7 28
15 20 15 19 17 -6 8z"/>
<path d="M127 271 c6 -23 28 -45 40 -39 4 1 -4 16 -19 31 -22 23 -25 24 -21 8z"/>
<path d="M569 260 c-15 -17 -21 -30 -14 -30 14 0 29 16 38 43 8 22 7 22 -24
-13z"/>
<path d="M120 150 c17 -11 180 -12 260 0 40 5 11 8 -110 8 -110 1 -160 -2
-150 -8z"/>
<path d="M66 103 c-12 -12 -6 -73 7 -73 18 0 37 21 37 42 0 18 -33 42 -44 31z
m21 -45 c-3 -8 -6 -5 -6 6 -1 11 2 17 5 13 3 -3 4 -12 1 -19z"/>
<path d="M164 97 c3 -11 9 -30 12 -43 9 -33 20 -30 30 9 l8 32 3 -32 c6 -47
23 -41 23 7 0 33 -3 40 -20 40 -11 0 -20 -7 -20 -15 0 -20 -10 -19 -27 3 -14
16 -14 16 -9 -1z"/>
<path d="M257 104 c-4 -4 -7 -23 -7 -41 0 -27 4 -34 16 -31 26 5 41 35 28 55
-12 20 -27 26 -37 17z m20 -46 c-3 -7 -5 -2 -5 12 0 14 2 19 5 13 2 -7 2 -19
0 -25z"/>
<path d="M304 95 c5 -11 11 -31 14 -44 4 -21 6 -20 18 15 7 21 10 41 7 44 -3
3 -8 -1 -10 -8 -4 -10 -8 -10 -21 0 -14 11 -15 10 -8 -7z"/>
<path d="M360 95 c-17 -20 -5 -67 17 -63 9 2 18 9 21 16 2 7 -2 10 -12 6 -12
-4 -16 0 -16 16 0 16 4 20 16 16 10 -4 14 -1 12 6 -6 18 -24 20 -38 3z"/>
<path d="M470 70 c0 -35 2 -40 14 -31 11 9 15 9 20 -1 3 -7 4 5 3 27 -1 29 -7
41 -19 43 -15 3 -18 -4 -18 -38z"/>
<path d="M527 103 c-4 -3 -7 -21 -7 -40 0 -26 4 -33 20 -33 11 0 20 5 20 10 0
6 -4 10 -8 10 -4 0 -8 9 -8 20 0 11 4 20 9 20 4 0 5 5 2 10 -7 12 -19 13 -28
3z"/>
<path d="M600 92 c0 -12 -3 -12 -15 -2 -13 11 -15 7 -14 -26 0 -29 2 -34 8
-20 5 14 10 16 15 8 13 -21 23 -13 18 13 -2 15 0 25 7 25 6 0 11 -13 11 -30 0
-16 5 -30 10 -30 6 0 10 14 10 30 0 17 1 33 3 38 1 4 -10 7 -25 8 -19 1 -28
-4 -28 -14z"/>
<path d="M127 83 c-2 -10 -8 -25 -12 -34 -5 -13 -1 -17 19 -15 27 1 30 7 20
44 -8 26 -20 29 -27 5z"/>
<path d="M410 65 c0 -19 5 -35 10 -35 6 0 10 8 10 17 0 15 2 14 15 -3 13 -18
14 -17 15 19 0 36 -13 50 -23 25 -4 -10 -6 -10 -6 0 -2 29 -21 9 -21 -23z"/>
</g>
</svg>
